# xmcd CD database file
#
# Track frame offsets:
#	150
#	12932
#	30925
#	49966
#	58491
#	70909
#	84854
#	96818
#	107248
#	125940
#	141327
#	164530
#	178595
#	182785
#	198153
#
# Disc length: 2851 seconds
#
# Revision: 1
# Processed by: cddbd v1.5.2PL0 Copyright (c) Steve Scherf et al.
# Submitted via: CDex 1.70beta2
#
DISCID=d70b210f
DTITLE=Dave Boyd - Western Dreams
DYEAR=2003
DGENRE=Country
TTITLE0=A Cowboy's Dream
TTITLE1=Ghost Riders in the Sky
TTITLE2=Cool Water
TTITLE3=Back in the Saddle
TTITLE4=Ridin' Down the Canyon
TTITLE5=Whoopi Ti Yi Yo, Get Along Little Dogies
TTITLE6=Cattle Call
TTITLE7=Red River Valley
TTITLE8=Fool's Gold
TTITLE9=An Old Puncher's Prayer
TTITLE10=Davey Ray
TTITLE11=The Master's Call
TTITLE12=After the Master Called (poem)
TTITLE13=Lord, I Want to Praise Your Name
TTITLE14=You're Always There
EXTD=YEAR: 2003
EXTT0=
EXTT1=
EXTT2=
EXTT3=
EXTT4=
EXTT5=
EXTT6=
EXTT7=
EXTT8=
EXTT9=
EXTT10=
EXTT11=
EXTT12=
EXTT13=
EXTT14=
PLAYORDER=
